<?xml version="1.0" encoding="iso-8859-1"?>
<!-- Generator: Adobe Illustrator 19.0.0, SVG Export Plug-In . SVG Version: 6.00 Build 0)  -->
<svg xmlns="http://www.w3.org/2000/svg" xmlns:xlink="http://www.w3.org/1999/xlink" version="1.1" id="Layer_1" x="0px" y="0px" viewBox="0 0 447 447" style="enable-background:new 0 0 447 447;" xml:space="preserve" width="512" height="512">
<g>
	<polygon style="fill:#F7B239;" points="311.093,176.999 311.093,188.999 136.903,188.999 136.903,176.999 177.503,176.999    177.503,30.789 189.503,30.789 189.503,176.999 217.503,176.999 217.503,17.999 229.503,17.999 229.503,176.999 257.503,176.999    257.503,30.789 269.503,30.789 269.503,176.999  "/>
	<path style="fill:#E5A030;" d="M177.503,30.789h12v20.51c-2.06,1.07-4.06,2.24-6,3.49c-2.08,1.34-4.08,2.78-6,4.32V30.789z"/>
	<path style="fill:#E5A030;" d="M217.503,17.999h12v25.24c-1.98-0.16-3.98-0.24-6-0.24s-4.02,0.08-6,0.24V17.999z"/>
	<path style="fill:#E5A030;" d="M257.503,30.789h12v28.32c-1.92-1.54-3.92-2.98-6-4.32c-1.94-1.25-3.94-2.42-6-3.49V30.789z"/>
	<path style="fill:#F7B239;" d="M328.41,230v0.02c-0.32-0.01-0.63-0.02-0.95-0.02l-20.957,16.769L297.41,230v-47v-78.09   c0-26.03-13.52-48.96-33.91-62.12C251.96,35.33,238.23,31,223.5,31s-28.46,4.33-40,11.79c-20.39,13.16-33.91,36.09-33.91,62.12V183   v47l-9.087,18.769L119.54,230c-0.32,0-0.63,0.01-0.95,0.02V230V104.91c0-28.97,11.74-55.2,30.73-74.18   C168.3,11.74,194.53,0,223.5,0c57.94,0,104.91,46.97,104.91,104.91V230z"/>
	<polyline style="fill:#F7B239;" points="144.08,275 144.08,447 121.29,447 114.93,297 114,275 127.503,259.769 144.08,275  "/>
	<polyline style="fill:#F7B239;" points="333,275 332.07,297 325.71,447 302.92,447 302.92,275 317.503,263.769 333,275  "/>
	<path style="fill:#70DEDA;" d="M346.64,249.19v17.66c0,4.5-3.65,8.15-8.15,8.15H333h-30.08H144.08H114h-5.49   c-4.5,0-8.15-3.65-8.15-8.15v-17.66c0-10.28,8.08-18.67,18.23-19.17c0.32-0.01,0.63-0.02,0.95-0.02h30.05h147.82h30.05   c0.32,0,0.63,0.01,0.95,0.02C338.56,230.52,346.64,238.91,346.64,249.19"/>
	<path style="fill:#80DEEA;" d="M147.54,230h-28c-0.02,0-0.04,0-0.06,0c-0.299,0.001-0.59,0.01-0.89,0.02   c-9.317,0.459-16.89,7.566-18.07,16.682c-0.105,0.815-0.16,1.645-0.16,2.488v17.66c0,4.5,3.65,8.15,8.15,8.15H114h22.51   c-4.5,0-8.15-3.65-8.15-8.15v-17.66c0-10.28,8.08-18.67,18.23-19.17C146.91,230.01,147.22,230,147.54,230"/>
	<path style="fill:#70DEDA;" d="M299.46,230l28,0c0.02,0,0.04,0,0.06,0c0.299,0.001,0.59,0.01,0.89,0.02   c9.318,0.459,16.891,7.566,18.07,16.682c0.105,0.815,0.16,1.645,0.16,2.488v17.66c0,4.5-3.65,8.15-8.15,8.15H333h-22.51   c4.5,0,8.15-3.65,8.15-8.15v-17.66c0-10.28-8.08-18.67-18.23-19.17C300.09,230.01,299.78,230,299.46,230"/>
	<polyline style="fill:#F7B239;" points="316.92,353.46 316.92,383.54 130.08,383.54 130.08,353.46 316.92,353.46  "/>
	<polyline style="fill:#E5A030;" points="302.92,353.46 283.92,353.46 283.92,383.54 302.92,383.54 302.92,353.46  "/>
	<polyline style="fill:#E5A030;" points="163.08,353.46 144.08,353.46 144.08,383.54 163.08,383.54 163.08,353.46  "/>
	<polyline style="fill:#E5A030;" points="144.08,275 136.51,275 114,275 114.93,297 144.08,297 144.08,275  "/>
	<polyline style="fill:#E5A030;" points="333,275 302.92,275 302.92,297 332.07,297 333,275  "/>
</g>















</svg>
